<svg xmlns="http://www.w3.org/2000/svg" width="1565" height="510" viewBox="0 0 1565 510"><defs><marker id="a" markerWidth="8" markerHeight="8" refX="6" refY="3" orient="auto"><path d="M0,0 L0,6 L7,3 z" fill="#94A3B8"/></marker></defs><rect width="1565" height="510" fill="#F8FAFC"/><text x="28" y="34" font-family="Arial" font-size="21" font-weight="700" fill="#16324F">Phase 1 · Swimlane theo vai trò</text><text x="28" y="60" font-family="Arial" font-size="13" fill="#64748B">Chuỗi S0 → F00 → F10; mũi tên nối theo thứ tự chạy, màu viền thể hiện vai trò thực hiện chính.</text><rect x="20" y="92" width="1525" height="112" rx="10" fill="#fff" stroke="#D7E0EA"/><rect x="20" y="92" width="205" height="112" rx="10" fill="#2563EB" opacity=".1"/><text x="38" y="134" font-family="Arial" font-size="16" font-weight="700" fill="#2563EB">Admin / Quản trị viên</text><text x="38" y="159" font-family="Arial" font-size="12" fill="#64748B">Các mốc được thực thi qua UI</text><rect x="20" y="226" width="1525" height="112" rx="10" fill="#fff" stroke="#D7E0EA"/><rect x="20" y="226" width="205" height="112" rx="10" fill="#0F766E" opacity=".1"/><text x="38" y="268" font-family="Arial" font-size="16" font-weight="700" fill="#0F766E">Vận hành</text><text x="38" y="293" font-family="Arial" font-size="12" fill="#64748B">Các mốc được thực thi qua UI</text><rect x="20" y="360" width="1525" height="112" rx="10" fill="#fff" stroke="#D7E0EA"/><rect x="20" y="360" width="205" height="112" rx="10" fill="#C2410C" opacity=".1"/><text x="38" y="402" font-family="Arial" font-size="16" font-weight="700" fill="#C2410C">Kế toán</text><text x="38" y="427" font-family="Arial" font-size="12" fill="#64748B">Các mốc được thực thi qua UI</text><g><rect x="240" y="110" width="108" height="76" rx="10" fill="#fff" stroke="#2563EB" stroke-width="2"/><rect x="240" y="110" width="108" height="7" rx="4" fill="#2563EB"/><text x="294" y="140" text-anchor="middle" font-family="Arial" font-size="18" font-weight="700" fill="#0F2A5F">S0</text><text x="294" y="161" text-anchor="middle" font-family="Arial" font-size="12" fill="#334155">Khởi động</text></g><path d="M348 148 C362 148, 332 148, 340 148" fill="none" stroke="#94A3B8" stroke-width="2.5" marker-end="url(#a)"/><g><rect x="348" y="110" width="108" height="76" rx="10" fill="#fff" stroke="#2563EB" stroke-width="2"/><rect x="348" y="110" width="108" height="7" rx="4" fill="#2563EB"/><text x="402" y="140" text-anchor="middle" font-family="Arial" font-size="18" font-weight="700" fill="#0F2A5F">F00</text><text x="402" y="161" text-anchor="middle" font-family="Arial" font-size="12" fill="#334155">Chủ nhà, tòa</text></g><path d="M456 148 C470 148, 440 282, 448 282" fill="none" stroke="#94A3B8" stroke-width="2.5" marker-end="url(#a)"/><g><rect x="456" y="244" width="108" height="76" rx="10" fill="#fff" stroke="#0F766E" stroke-width="2"/><rect x="456" y="244" width="108" height="7" rx="4" fill="#0F766E"/><text x="510" y="274" text-anchor="middle" font-family="Arial" font-size="18" font-weight="700" fill="#0F2A5F">F01</text><text x="510" y="295" text-anchor="middle" font-family="Arial" font-size="12" fill="#334155">Khách thuê</text></g><path d="M564 282 C578 282, 548 282, 556 282" fill="none" stroke="#94A3B8" stroke-width="2.5" marker-end="url(#a)"/><g><rect x="564" y="244" width="108" height="76" rx="10" fill="#fff" stroke="#0F766E" stroke-width="2"/><rect x="564" y="244" width="108" height="7" rx="4" fill="#0F766E"/><text x="618" y="274" text-anchor="middle" font-family="Arial" font-size="18" font-weight="700" fill="#0F2A5F">F02</text><text x="618" y="295" text-anchor="middle" font-family="Arial" font-size="12" fill="#334155">Hợp đồng</text></g><path d="M672 282 C686 282, 656 416, 664 416" fill="none" stroke="#94A3B8" stroke-width="2.5" marker-end="url(#a)"/><g><rect x="672" y="378" width="108" height="76" rx="10" fill="#fff" stroke="#C2410C" stroke-width="2"/><rect x="672" y="378" width="108" height="7" rx="4" fill="#C2410C"/><text x="726" y="408" text-anchor="middle" font-family="Arial" font-size="18" font-weight="700" fill="#0F2A5F">F03</text><text x="726" y="429" text-anchor="middle" font-family="Arial" font-size="12" fill="#334155">Hóa đơn</text></g><path d="M780 416 C794 416, 764 148, 772 148" fill="none" stroke="#94A3B8" stroke-width="2.5" marker-end="url(#a)"/><g><rect x="780" y="110" width="108" height="76" rx="10" fill="#fff" stroke="#2563EB" stroke-width="2"/><rect x="780" y="110" width="108" height="7" rx="4" fill="#2563EB"/><text x="834" y="140" text-anchor="middle" font-family="Arial" font-size="18" font-weight="700" fill="#0F2A5F">F04</text><text x="834" y="161" text-anchor="middle" font-family="Arial" font-size="12" fill="#334155">Zalo HĐ</text></g><path d="M888 148 C902 148, 872 416, 880 416" fill="none" stroke="#94A3B8" stroke-width="2.5" marker-end="url(#a)"/><g><rect x="888" y="378" width="108" height="76" rx="10" fill="#fff" stroke="#C2410C" stroke-width="2"/><rect x="888" y="378" width="108" height="7" rx="4" fill="#C2410C"/><text x="942" y="408" text-anchor="middle" font-family="Arial" font-size="18" font-weight="700" fill="#0F2A5F">F05</text><text x="942" y="429" text-anchor="middle" font-family="Arial" font-size="12" fill="#334155">Thu một phần</text></g><path d="M996 416 C1010 416, 980 148, 988 148" fill="none" stroke="#94A3B8" stroke-width="2.5" marker-end="url(#a)"/><g><rect x="996" y="110" width="108" height="76" rx="10" fill="#fff" stroke="#2563EB" stroke-width="2"/><rect x="996" y="110" width="108" height="7" rx="4" fill="#2563EB"/><text x="1050" y="140" text-anchor="middle" font-family="Arial" font-size="18" font-weight="700" fill="#0F2A5F">F06</text><text x="1050" y="161" text-anchor="middle" font-family="Arial" font-size="12" fill="#334155">Nhắc nợ</text></g><path d="M1104 148 C1118 148, 1088 282, 1096 282" fill="none" stroke="#94A3B8" stroke-width="2.5" marker-end="url(#a)"/><g><rect x="1104" y="244" width="108" height="76" rx="10" fill="#fff" stroke="#0F766E" stroke-width="2"/><rect x="1104" y="244" width="108" height="7" rx="4" fill="#0F766E"/><text x="1158" y="274" text-anchor="middle" font-family="Arial" font-size="18" font-weight="700" fill="#0F2A5F">F07</text><text x="1158" y="295" text-anchor="middle" font-family="Arial" font-size="12" fill="#334155">Kết thúc HĐ</text></g><path d="M1212 282 C1226 282, 1196 416, 1204 416" fill="none" stroke="#94A3B8" stroke-width="2.5" marker-end="url(#a)"/><g><rect x="1212" y="378" width="108" height="76" rx="10" fill="#fff" stroke="#C2410C" stroke-width="2"/><rect x="1212" y="378" width="108" height="7" rx="4" fill="#C2410C"/><text x="1266" y="408" text-anchor="middle" font-family="Arial" font-size="18" font-weight="700" fill="#0F2A5F">F08</text><text x="1266" y="429" text-anchor="middle" font-family="Arial" font-size="12" fill="#334155">Hoàn cọc</text></g><path d="M1320 416 C1334 416, 1304 282, 1312 282" fill="none" stroke="#94A3B8" stroke-width="2.5" marker-end="url(#a)"/><g><rect x="1320" y="244" width="108" height="76" rx="10" fill="#fff" stroke="#0F766E" stroke-width="2"/><rect x="1320" y="244" width="108" height="7" rx="4" fill="#0F766E"/><text x="1374" y="274" text-anchor="middle" font-family="Arial" font-size="18" font-weight="700" fill="#0F2A5F">F09</text><text x="1374" y="295" text-anchor="middle" font-family="Arial" font-size="12" fill="#334155">Dọn phòng</text></g><path d="M1428 282 C1442 282, 1412 416, 1420 416" fill="none" stroke="#94A3B8" stroke-width="2.5" marker-end="url(#a)"/><g><rect x="1428" y="378" width="108" height="76" rx="10" fill="#fff" stroke="#C2410C" stroke-width="2"/><rect x="1428" y="378" width="108" height="7" rx="4" fill="#C2410C"/><text x="1482" y="408" text-anchor="middle" font-family="Arial" font-size="18" font-weight="700" fill="#0F2A5F">F10</text><text x="1482" y="429" text-anchor="middle" font-family="Arial" font-size="12" fill="#334155">Bổ trợ</text></g><text x="28" y="497" font-family="Arial" font-size="12" fill="#64748B">Evidence runtime 1440×1080 · manifest.json lưu route, dữ liệu nhập, action, expected/actual và trạng thái từng mốc.</text></svg>